<?xml version="1.0" encoding="UTF-8" standalone="no"?>
<!-- Created with Inkscape (http://www.inkscape.org/) -->

<svg
   xmlns:dc="http://purl.org/dc/elements/1.1/"
   xmlns:cc="http://creativecommons.org/ns#"
   xmlns:rdf="http://www.w3.org/1999/02/22-rdf-syntax-ns#"
   xmlns:svg="http://www.w3.org/2000/svg"
   xmlns="http://www.w3.org/2000/svg"
   xmlns:xlink="http://www.w3.org/1999/xlink"
   xmlns:sodipodi="http://sodipodi.sourceforge.net/DTD/sodipodi-0.dtd"
   xmlns:inkscape="http://www.inkscape.org/namespaces/inkscape"
   width="1024"
   height="1024"
   id="svg2"
   version="1.1"
   inkscape:version="0.48.1 "
   sodipodi:docname="tangosushi-logo.svg"
   inkscape:export-filename="./tangosushi-logo.png"
   inkscape:export-xdpi="90"
   inkscape:export-ydpi="90">
  <defs
     id="defs4" />
  <sodipodi:namedview
     id="base"
     pagecolor="#ffffff"
     bordercolor="#666666"
     borderopacity="1.0"
     inkscape:pageopacity="0.0"
     inkscape:pageshadow="2"
     inkscape:zoom="0.43"
     inkscape:cx="437.54854"
     inkscape:cy="563.99544"
     inkscape:document-units="px"
     inkscape:current-layer="layer2"
     showgrid="false"
     inkscape:window-width="1280"
     inkscape:window-height="738"
     inkscape:window-x="-8"
     inkscape:window-y="-8"
     inkscape:window-maximized="1"
     borderlayer="true"
     inkscape:snap-page="false"
     showguides="true"
     inkscape:guide-bbox="true" />
  <metadata
     id="metadata7">
    <rdf:RDF>
      <cc:Work
         rdf:about="">
        <dc:format>image/svg+xml</dc:format>
        <dc:type
           rdf:resource="http://purl.org/dc/dcmitype/StillImage" />
        <dc:title></dc:title>
      </cc:Work>
    </rdf:RDF>
  </metadata>
  <g
     inkscape:groupmode="layer"
     id="layer8"
     inkscape:label="words"
     style="display:none">
    <text
       xml:space="preserve"
       style="font-size:92.95893097px;font-style:normal;font-variant:normal;font-weight:bold;font-stretch:normal;text-align:center;line-height:100%;letter-spacing:25.82192421px;writing-mode:lr-tb;text-anchor:middle;fill:#000000;fill-opacity:1;stroke:none;font-family:BankGothic Md BT;-inkscape-font-specification:BankGothic Md BT Bold"
       x="516.80426"
       y="1011.7868"
       id="text3827"
       sodipodi:linespacing="100%"><tspan
         sodipodi:role="line"
         id="tspan3829"
         x="529.71521"
         y="1011.7868">TANGOSUSHI</tspan></text>
  </g>
  <g
     inkscape:groupmode="layer"
     id="layer5"
     inkscape:label="tanglarm">
    <path
       style="fill:#000000;stroke:none"
       d="m 539.74783,182.25794 37.63093,-22.99668 18.81546,10.45304 14.63425,27.17789 -4.40128,67.66966 -2.98939,38.02479 75.99983,-45.58315 36.19748,-14.52086 13.64158,20.56013 -23.16212,19.387 4.00072,8.66325 -151.87735,99.8829 -28.57665,-35.17937 z"
       id="path3007"
       inkscape:connector-curvature="0"
       sodipodi:nodetypes="cccccccccccccc" />
  </g>
  <g
     inkscape:groupmode="layer"
     id="layer2"
     inkscape:label="tango"
     style="display:inline">
    <path
       style="fill:#000000;stroke:none"
       d="m 644.40615,238.29829 c 13.41215,5.64514 41.8561,-12.40354 41.8561,-12.40354 0,0 1.35307,-0.60954 10.23611,5.32658 8.88304,5.93612 15.45121,-26.71863 15.45121,-26.71863 0,0 9.01132,-2.61816 12.00894,-5.92565 17.69765,-19.52704 34.85822,-48.57981 27.86387,-73.9879 -7.6843,-27.914521 -43.17669,-50.86313 -72.56987,-50.139397 -21.23396,0.522832 -38.67731,21.164829 -50.57912,38.757487 -12.08562,17.86435 -19.7186,40.86962 -17.42276,62.31551 2.51894,23.53001 11.34431,53.59525 33.15552,62.77554 z"
       id="path3828"
       inkscape:connector-curvature="0"
       sodipodi:nodetypes="acscasaaaa" />
    <path
       style="fill:#000000;stroke:none"
       d="m 614.98888,150.30709 c -10.36296,-9.88798 -24.06127,-18.96724 -38.38035,-19.32404 -16.04784,-0.39989 -32.06851,8.79238 -44.03932,19.48783 -18.46687,16.49946 -26.72385,41.83728 -37.49438,64.13645 -11.70714,24.23835 -21.6267,49.45183 -29.2685,75.26187 -25.0344,84.55337 -53.80562,259.01524 -53.80562,259.01524 L 192.48694,801.84792 c 0,0 -20.38172,12.41872 -27.17789,28.68053 -13.68002,32.73344 -34.10958,47.47673 -43.54344,70.362 -5.91545,14.35009 -21.00388,38.28495 -7.51311,45.96069 23.42445,13.32766 74.68195,-25.20258 97.3439,-54.58444 15.92776,-20.65078 21.42872,-33.90704 21.42872,-33.90704 l 28.45186,8.29709 242.51046,-229.9668 102.43975,-175.61102 104.53037,129.61766 -20.90608,273.83689 c 0,0 83.14045,47.31393 112.8928,23.02935 8.39025,-6.84834 9.53326,-27.30291 0.0326,-32.50241 -14.84132,-8.12242 -29.30111,-26.0346 -29.30111,-26.0346 l 6.27182,-85.71489 10.45303,-190.24527 -43.90275,-98.25855 -107.56828,-85.19224 30.21581,-52.78784 c 0,0 2.31836,-54.30014 -5.30733,-79.86887 -9.47645,-31.77424 -24.86012,-63.76154 -48.8492,-86.65107 z"
       id="path2999"
       inkscape:connector-curvature="0"
       sodipodi:nodetypes="aaaaaccssssccccccssccccccaa" />
    <path
       style="fill:#ffffff;stroke:none"
       d="m 647.97131,246.16716 c 0,0 -27.41135,-28.251 -35.57494,-45.763 -3.95907,-8.49273 -5.24355,-18.13654 -5.90526,-27.48335 -0.51592,-7.28752 1.53939,-21.86313 1.53939,-21.86313 0,0 -8.19081,4.48734 -10.26542,8.38923 -4.70091,8.84138 -5.98984,20.43863 -2.75157,29.91398 8.37186,24.49646 52.9578,56.80627 52.9578,56.80627 z"
       id="path3801"
       inkscape:connector-curvature="0"
       sodipodi:nodetypes="caacaac" />
    <path
       style="fill:#ffffff;stroke:none"
       d="m 737.92103,168.92996 c 0,0 -18.08192,-5.21155 -26.53462,-9.24692 -6.8798,-3.28444 -19.43194,-12.06118 -19.43194,-12.06118 0,0 -8.36302,8.01022 -9.33308,13.35347 -0.94729,5.2178 3.94862,15.41152 3.94862,15.41152 0,0 -13.01973,-8.22312 -19.408,-5.98274 -6.37208,2.2347 -11.39112,16.75166 -11.39112,16.75166 0,0 -9.40877,-6.84462 -10.72107,-12.06119 -1.17628,-4.6759 4.03605,-9.29882 3.35034,-14.0714 -1.0244,-7.12978 -4.3662,-15.37086 -10.72106,-18.76187 -2.76581,-1.47586 -6.634,-0.84062 -9.38094,0.67007 -4.88032,2.68397 -8.96846,7.95142 -9.93137,13.43722 -1.7833,10.15984 4.35393,20.36345 8.81852,29.66238 1.51785,3.16141 -5.48747,4.62179 -5.58782,7.82544 -0.32673,10.42911 16.56024,26.5634 16.56024,26.5634 0,0 21.87957,-10.18421 30.45207,-18.37299 4.92943,-4.70876 11.35525,-17.00893 11.35525,-17.00893 0,0 26.3692,12.64874 38.79207,8.14847 9.6883,-3.50965 19.16391,-24.25641 19.16391,-24.25641 z"
       id="path3791"
       inkscape:connector-curvature="0"
       sodipodi:nodetypes="cacacacaaaaasacacac" />
  </g>
  <g
     inkscape:groupmode="layer"
     id="layer3"
     inkscape:label="sushi">
    <path
       style="fill:#808080;stroke:none"
       d="m 940.92436,394.1795 c 12.74115,35.22959 -10.14663,79.0779 -35.54032,106.62098 -31.32241,33.97361 -84.8704,36.58754 -127.52705,54.35578 -44.65293,18.59978 -91.67503,32.03982 -134.41338,54.6953 -41.97346,22.25 -78.53924,53.49177 -118.55011,79.10357 -60.59795,38.79004 -116.59158,73.39316 -183.97344,112.89279 -48.66957,28.53038 -63.80232,23.21876 -96.16794,18.81548 -20.07229,-2.73081 -40.84582,-12.08369 -54.35579,-27.1779 -9.41061,-10.51415 -14.89329,-25.61339 -14.63425,-39.72155 0.77448,-42.1808 19.39667,-86.14084 48.08397,-117.074 C 379.18199,469.19308 608.18599,319.09621 836.394,329.37067 c 40.9555,1.84391 90.58721,26.25572 104.53036,64.80883 z"
       id="path3787"
       inkscape:connector-curvature="0"
       sodipodi:nodetypes="aaaaasaaaaaa" />
    <path
       style="fill:#ffffff;stroke:none"
       d="m 169.49026,649.23359 c -10.41449,14.5119 -20.95737,32.44131 -18.81546,50.17458 4.14882,34.34904 33.36396,61.97912 58.537,85.7149 11.8257,11.1505 25.58013,24.24899 41.81215,25.08729 70.67492,3.64998 130.27995,-55.87657 192.33587,-89.89612 73.3796,-40.22729 131.87092,-94.39113 211.93691,-134.56583 41.19752,-20.6717 92.58481,-35.08636 139.28512,-51.49822 24.94856,-8.76766 51.94658,-12.60932 75.26186,-25.08729 14.01075,-7.49832 29.35809,-15.70068 37.63093,-29.2685 23.62306,-38.74285 39.99947,-90.94232 25.08729,-133.79887 -6.98017,-20.06051 -27.53059,-36.45439 -48.08397,-41.81215 -79.21924,-20.65049 -162.80568,24.1328 -240.41983,50.17458 -94.27487,31.63192 -185.6047,74.43968 -269.68836,127.52705 -74.54449,47.06469 -153.47875,95.62506 -204.87951,167.24858 z"
       id="path3009"
       inkscape:connector-curvature="0"
       sodipodi:nodetypes="aaaaasaaaaaaaa" />
  </g>
  <g
     inkscape:groupmode="layer"
     id="layer7"
     inkscape:label="shrimp">
    <path
       style="fill:#ff432d;fill-opacity:1;stroke:none"
       d="m 148.58419,847.84129 c 0,0 35.0077,-56.45726 58.537,-79.44308 82.30993,-80.40869 182.72212,-141.11204 282.61548,-198.22421 91.47571,-52.29952 186.23291,-102.5904 287.71824,-130.94127 60.28068,-16.83999 127.09841,-2.2369 186.46614,-22.05655 16.96299,-5.66301 37.11325,-11.67263 46.37935,-26.96814 14.4942,-23.92542 14.6413,-58.04899 3.7953,-83.83405 -5.521,-13.12542 -31.85446,-28.46259 -31.85446,-28.46259 0,0 -15.16634,-46.9809 -35.04506,-57.25231 -52.31249,-27.0301 -118.62772,-0.19839 -176.24506,11.94511 -12.53451,2.64178 -24.17748,8.48681 -36.12904,13.0969 -81.30432,31.36164 -164.90411,58.30918 -241.94543,99.03485 C 435.67337,374.97482 379.50854,409.01707 330.94059,451.76937 260.3042,513.9476 187.43187,580.82627 146.6544,665.63682 128.48131,703.43388 123.4969,789.30428 123.4969,789.30428 L 2.2416801,898.01587 45.584976,906.57238 103.0762,853.41036 52.600659,912.94444 87.381347,937.52707 z"
       id="path3783"
       inkscape:connector-curvature="0"
       sodipodi:nodetypes="caaaaaacaaaaaaccccccc" />
    <path
       style="fill:#ffffff;stroke:none"
       d="m 742.31666,249.9276 c 0,0 15.66975,16.1854 21.0468,25.93407 5.2625,9.54101 10.47941,30.96298 10.47941,30.96298 0,0 22.9784,20.90196 28.38779,34.88362 9.45678,24.44295 4.33952,78.50583 4.33952,78.50583 l 16.75752,-2.80926 c 0,0 3.67088,-55.12824 -6.43012,-79.84512 -5.97587,-14.62279 -30.36814,-36.38141 -30.36814,-36.38141 0,0 -6.21153,-22.62243 -12.15763,-32.56843 -5.19567,-8.69077 -20.03838,-22.82942 -20.03838,-22.82942 z"
       id="path3016"
       inkscape:connector-curvature="0"
       sodipodi:nodetypes="cacaccacacc" />
    <path
       style="fill:#ffffff;stroke:none"
       d="m 637.69395,296.3442 -16.63251,5.84858 c 0,0 16.40354,13.10285 21.84949,21.8437 6.5895,10.57625 12.07327,35.38001 12.07327,35.38001 0,0 18.6571,19.73985 24.87818,31.62128 8.66633,16.55152 16.46093,53.57763 16.46093,53.57763 l 13.29495,-4.54054 c 0,0 -7.45158,-39.3123 -16.39349,-56.91377 -6.05469,-11.91822 -24.57694,-31.69075 -24.57694,-31.69075 0,0 -5.3398,-24.53116 -11.71686,-35.08323 -4.78966,-7.92545 -19.23702,-20.04291 -19.23702,-20.04291 z"
       id="path3014"
       inkscape:connector-curvature="0"
       sodipodi:nodetypes="ccacaccacac" />
    <path
       style="fill:#ffffff;stroke:none"
       d="m 472.50119,367.65747 -13.33115,6.48472 c 0,0 18.29823,12.06143 25.21371,20.36044 7.64909,9.17938 17.1204,31.49313 17.1204,31.49313 0,0 26.47097,26.61393 36.38976,42.36852 8.23403,13.07856 18.65721,42.44453 18.65721,42.44453 l 13.68837,-11.40421 c 0,0 -9.62528,-24.77235 -16.93626,-35.74419 -9.72112,-14.58877 -35.1927,-39.08283 -35.1927,-39.08283 0,0 -12.22727,-25.26331 -21.1427,-35.91843 -6.89724,-8.24312 -24.46664,-21.00168 -24.46664,-21.00168 z"
       id="path3012"
       inkscape:connector-curvature="0"
       sodipodi:nodetypes="ccacaccacac" />
    <path
       style="fill:#ffffff;stroke:none"
       d="m 337.23661,455.40069 -10.48598,9.17489 c 0,0 19.46223,10.83408 27.26433,18.58696 8.14146,8.09012 19.57506,28.32699 19.57506,28.32699 0,0 29.56505,17.5403 39.58224,30.9677 8.53489,11.44044 15.68397,39.84426 15.68397,39.84426 l 13.13163,-6.79447 c 0,0 -7.76244,-28.55942 -16.53327,-40.02392 -10.33721,-13.51192 -40.43156,-31.14737 -40.43156,-31.14737 0,0 -11.28548,-20.95385 -19.50973,-29.33754 -8.03087,-8.18657 -28.27669,-19.5975 -28.27669,-19.5975 z"
       id="path3010"
       inkscape:connector-curvature="0"
       sodipodi:nodetypes="ccacaccacac" />
    <path
       style="fill:#ffffff;stroke:none"
       d="m 232.02403,556.1321 -8.29186,9.18433 c 0,0 14.63335,7.71941 20.64371,13.26803 6.0084,5.5468 14.86756,19.51324 14.86756,19.51324 0,0 20.66473,10.38961 28.34041,18.70946 9.79139,10.61308 20.88214,37.95412 20.88214,37.95412 l 7.67644,-6.66382 c 0,0 -10.47052,-28.2045 -20.00015,-39.45674 -7.34503,-8.67274 -27.45844,-20.21208 -27.45844,-20.21208 0,0 -9.35512,-13.93353 -15.5862,-19.41526 -6.18135,-5.43796 -21.07361,-12.88128 -21.07361,-12.88128 z"
       id="path3008"
       inkscape:connector-curvature="0"
       sodipodi:nodetypes="ccacaccacac" />
    <path
       style="fill:#ffffff;stroke:none"
       d="m 166.30761,678.50708 c -4.24556,-1.998 -13.71332,-3.17741 -13.71332,-3.17741 0,0 7.59487,4.07753 10.8397,6.86328 4.94235,4.24308 12.83255,14.7377 12.83255,14.7377 0,0 14.03029,7.59578 18.50173,13.87534 6.68594,9.38955 10.5563,32.92959 10.5563,32.92959 l 18.70731,-15.58333 c 0,0 -12.5377,-21.48327 -22.04123,-29.06999 -6.14154,-4.90285 -21.47479,-9.72835 -21.47479,-9.72835 0,0 -8.81697,-8.30965 -14.20825,-10.84683 z"
       id="path3785"
       inkscape:connector-curvature="0"
       sodipodi:nodetypes="acacaccaca" />
    <path
       style="fill:#ffffff;stroke:none"
       d="m 879.01163,215.16076 c 0,0 32.82964,6.38292 46.70299,15.04506 20.13788,12.57354 49.38313,51.3221 49.38313,51.3221 0,0 -14.7896,-42.49258 -32.08278,-54.59701 -17.77133,-12.43911 -64.00334,-11.77015 -64.00334,-11.77015 z"
       id="path3807"
       inkscape:connector-curvature="0"
       sodipodi:nodetypes="cacac" />
    <path
       style="fill:#ffffff;stroke:none"
       d="m 162.49462,805.57355 c 0,0 22.23865,-48.8916 40.17714,-68.26623 76.26058,-82.36595 176.83555,-140.44189 276.22839,-192.60409 135.70302,-71.2181 277.4184,-162.64272 430.6651,-160.97677 38.48446,0.41837 54.3558,22.99668 54.3558,22.99668 0,0 -55.92542,15.79001 -135.88948,14.82599 -21.58126,-0.26017 -52.69702,7.0683 -77.69598,15.60311 -122.08476,41.68054 -236.50454,104.86225 -346.8147,171.7474 -70.03195,42.46298 -138.9552,88.56919 -198.48539,144.81625 -16.25131,15.35505 -42.54088,51.85766 -42.54088,51.85766 z"
       id="path3824"
       inkscape:connector-curvature="0"
       sodipodi:nodetypes="caascsaaac" />
  </g>
  <g
     inkscape:groupmode="layer"
     id="layer9"
     inkscape:label="highlight"
     style="display:inline">
    <path
       style="fill:#ffffff;stroke:none"
       d="m 575.06808,241.56516 c 0,0 28.53275,-6.3794 41.81214,-2.0906 12.73854,4.11411 25.56028,13.02207 31.35912,25.08729 7.24501,15.07417 1.83809,33.55102 0,50.17457 -5.25837,47.55621 -31.35912,140.07069 -31.35912,140.07069 l 9.95192,22.11191 -58.15333,27.2718 z"
       id="path3803"
       inkscape:connector-curvature="0"
       sodipodi:nodetypes="caaacccc" />
  </g>
  <g
     inkscape:groupmode="layer"
     id="layer4"
     inkscape:label="tangrarm">
    <path
       style="fill:#000000;stroke:none"
       d="m 531.16533,277.10549 c 6.9096,-15.8097 21.21855,-30.21838 37.63093,-35.54033 15.37562,-4.98575 34.24448,-2.07895 48.08396,6.27183 12.41576,7.4917 25.92892,21.06386 25.08729,35.54032 -4.11521,70.78365 -33.44971,175.61101 -33.44971,175.61101 l 54.35579,96.16794 38.20616,43.13578 c 0,0 -28.15862,22.56638 -44.11999,20.06526 -14.19145,-2.22378 -31.89025,-28.98435 -31.89025,-28.98435 l -26.23776,8.17069 -69.75704,-113.46803 c 0,0 -25.53933,-143.75068 2.09062,-206.97012 z"
       id="path3004"
       inkscape:connector-curvature="0"
       sodipodi:nodetypes="aaascccaccca" />
    <path
       style="fill:#ffffff;stroke:none"
       d="m 689.42794,595.42609 -27.7452,-28.75825 -29.08905,17.49065 c 0,0 13.18851,23.14895 24.80683,25.39358 11.45625,2.21331 32.02742,-14.12598 32.02742,-14.12598 z"
       id="path3834"
       inkscape:connector-curvature="0"
       sodipodi:nodetypes="cccac" />
  </g>
  <g
     inkscape:label="reference"
     inkscape:groupmode="layer"
     id="layer1"
     transform="translate(0,-28.362183)"
     style="opacity:0.64274334;display:none">
    <image
       sodipodi:absref="C:\Users\Stuart\Projects\addons\sango\tangosushi\Tango-Show-Buenos-Aires-01.jpg"
       xlink:href="Tango-Show-Buenos-Aires-01.jpg"
       width="1098.5334"
       height="1464.7113"
       id="image2993"
       x="37.831612"
       y="-346.64594" />
  </g>
</svg>
