<?xml version="1.0" encoding="UTF-8" standalone="no"?>
<!-- Created with Inkscape (http://www.inkscape.org/) -->

<svg
   xmlns:dc="http://purl.org/dc/elements/1.1/"
   xmlns:cc="http://creativecommons.org/ns#"
   xmlns:rdf="http://www.w3.org/1999/02/22-rdf-syntax-ns#"
   xmlns:svg="http://www.w3.org/2000/svg"
   xmlns="http://www.w3.org/2000/svg"
   xmlns:xlink="http://www.w3.org/1999/xlink"
   xmlns:sodipodi="http://sodipodi.sourceforge.net/DTD/sodipodi-0.dtd"
   xmlns:inkscape="http://www.inkscape.org/namespaces/inkscape"
   width="1024"
   height="1024"
   id="svg2"
   version="1.1"
   inkscape:version="0.48.1 "
   sodipodi:docname="tangosushi-logo.svg">
  <defs
     id="defs4" />
  <sodipodi:namedview
     id="base"
     pagecolor="#ffffff"
     bordercolor="#666666"
     borderopacity="1.0"
     inkscape:pageopacity="0.0"
     inkscape:pageshadow="2"
     inkscape:zoom="0.52"
     inkscape:cx="425.84951"
     inkscape:cy="523.59253"
     inkscape:document-units="px"
     inkscape:current-layer="layer7"
     showgrid="false"
     inkscape:window-width="1280"
     inkscape:window-height="738"
     inkscape:window-x="-8"
     inkscape:window-y="-8"
     inkscape:window-maximized="1"
     borderlayer="true"
     inkscape:snap-page="false"
     showguides="true"
     inkscape:guide-bbox="true" />
  <metadata
     id="metadata7">
    <rdf:RDF>
      <cc:Work
         rdf:about="">
        <dc:format>image/svg+xml</dc:format>
        <dc:type
           rdf:resource="http://purl.org/dc/dcmitype/StillImage" />
        <dc:title />
      </cc:Work>
    </rdf:RDF>
  </metadata>
  <g
     inkscape:groupmode="layer"
     id="layer6"
     inkscape:label="bg"
     sodipodi:insensitive="true">
    <rect
       style="fill:#ffffff;fill-opacity:1;stroke:none"
       id="rect3012"
       width="1024"
       height="1024"
       x="0"
       y="0" />
  </g>
  <g
     inkscape:groupmode="layer"
     id="layer8"
     inkscape:label="words"
     style="display:none">
    <text
       xml:space="preserve"
       style="font-size:92.95893097px;font-style:normal;font-variant:normal;font-weight:bold;font-stretch:normal;text-align:center;line-height:100%;letter-spacing:25.82192421px;writing-mode:lr-tb;text-anchor:middle;fill:#000000;fill-opacity:1;stroke:none;font-family:BankGothic Md BT;-inkscape-font-specification:BankGothic Md BT Bold"
       x="516.80426"
       y="995.50775"
       id="text3827"
       sodipodi:linespacing="100%"><tspan
         sodipodi:role="line"
         id="tspan3829"
         x="529.71521"
         y="995.50775">TANGOSUSHI</tspan></text>
  </g>
  <g
     inkscape:groupmode="layer"
     id="layer5"
     inkscape:label="tanglarm">
    <path
       style="fill:#000000;stroke:none"
       d="m 558,132 36,-22 18,10 14,26 -20,120 -2.85983,36.37679 72.70598,-43.60756 L 704,242 l 26,6 -20,102 -112,68 -64,38 0,-102 z"
       id="path3007"
       inkscape:connector-curvature="0"
       sodipodi:nodetypes="cccccccccccccc" />
  </g>
  <g
     inkscape:groupmode="layer"
     id="layer2"
     inkscape:label="tango">
    <path
       style="fill:#000000;stroke:none"
       d="M 626,118 728,36 c 0,0 43.35121,22.515224 62,38 21.1149,17.53248 55.19534,61.09432 55.19534,61.09432 L 660,216 666,316 637.10079,366.5041 740,448 l 42,94 -10,182 -6,82 c 0,0 13.81964,17.14678 28.01778,24.91717 C 803.10662,835.89133 802.02662,855.44847 794,862 765.53713,885.23209 686,839.98222 686,839.98222 L 706,578 606,454 508,622 276,842 248.77287,834.06225 c 0,0 -5.23926,12.67057 -20.47671,32.42634 -21.67978,28.10845 -70.73296,64.9774 -93.1422,52.22737 -12.90607,-7.34308 1.51826,-30.23628 7.17734,-43.96444 9.02499,-21.89342 28.59535,-35.99536 41.68247,-67.31013 C 190.51539,791.88437 210,780 210,780 L 420,538 c 0,0 34.14178,-189.87492 62,-282 7.45363,-24.64862 15.29509,-49.60142 28,-72 11.25071,-19.83485 25.59137,-38.1647 42,-54 10.65131,-10.27914 21.33478,-23.98945 36,-26 13.37387,-1.83351 38,14 38,14 z"
       id="path2999"
       inkscape:connector-curvature="0"
       sodipodi:nodetypes="ccaccccccccsaccccccssssccaaaac" />
    <path
       style="fill:#ffffff;stroke:none"
       d="m 656,232 c 0,0 -30.47174,-19.38426 -40.37471,-33.90179 -6.3485,-9.30676 -10.16844,-20.78012 -10.79027,-32.02879 C 604.04284,151.73925 614,124 614,124 c 0,0 -21.17646,26.21711 -22,42 -0.55057,10.55147 5.14808,21.17228 11.7057,29.45687 C 616.90417,212.1312 656,232 656,232 z"
       id="path3801"
       inkscape:connector-curvature="0"
       sodipodi:nodetypes="caacaac" />
  </g>
  <g
     inkscape:groupmode="layer"
     id="layer3"
     inkscape:label="sushi"
     style="opacity:1">
    <path
       style="fill:#000000;stroke:#000000;stroke-width:1px;stroke-linecap:butt;stroke-linejoin:miter;stroke-opacity:1"
       d="m 926,390 c 12.18895,33.70273 -9.70687,75.65065 -34,102 -29.96489,32.50119 -81.1921,35.00184 -122,52 -42.71767,17.79366 -87.70182,30.65121 -128.58788,52.32479 C 601.2578,617.61047 566.27679,647.49822 528,672 c -57.97163,37.10887 -111.53848,70.21229 -176,108 -46.56022,27.29386 -61.03712,22.21244 -92,18 -19.20236,-2.61245 -39.07556,-11.55997 -52,-26 -9.00275,-10.05846 -14.24781,-24.5033 -14,-38 0.74092,-40.35269 18.55602,-82.40749 46,-112 148.60365,-160.23753 367.68257,-303.82916 586,-294 39.18049,1.764 86.66115,25.11779 100,62 z"
       id="path3787"
       inkscape:connector-curvature="0"
       sodipodi:nodetypes="aaaaasaaaaaa" />
    <path
       style="fill:#ffffff;stroke:none"
       d="m 188,634 c -9.96312,13.88295 -20.04908,31.03529 -18,48 3.96902,32.86035 31.91797,59.29293 56,82 11.31317,10.66724 24.47149,23.19804 40,24 67.61186,3.49179 124.6336,-53.45486 184,-86 C 520.19932,663.51617 576.15561,611.6998 652.75152,573.26627 692.16353,553.4905 741.32369,539.70056 786,524 c 23.86728,-8.38766 49.6952,-12.06283 72,-24 13.40352,-7.17334 28.0857,-15.02021 36,-28 22.59923,-37.06372 38.26588,-87.00086 24,-128 -6.67765,-19.19109 -26.33741,-34.87445 -46,-40 -75.78587,-19.7555 -155.74965,23.08688 -230,48 -90.18897,30.26099 -177.56055,71.21345 -258,122 -71.31373,45.0249 -146.82696,91.48065 -196,160 z"
       id="path3009"
       inkscape:connector-curvature="0"
       sodipodi:nodetypes="aaaaasaaaaaaaa" />
  </g>
  <g
     inkscape:groupmode="layer"
     id="layer7"
     inkscape:label="shrimp"
     style="opacity:1">
    <path
       style="fill:#000000;stroke:#000000;stroke-width:1px;stroke-linecap:butt;stroke-linejoin:miter;stroke-opacity:1"
       d="m 168,824 c 0,0 33.49046,-54.01039 56,-76 C 302.7426,671.07623 398.8029,613.00378 494.36687,558.36687 581.878,508.33402 672.52841,460.22275 769.61535,433.10061 827.28345,416.99048 891.20528,430.96066 948,412 964.22782,406.58242 983.5047,400.83326 992.36921,386.20066 1006.2352,363.31218 1004.1317,331.49557 996,306 c -10.53586,-33.03359 -32.34319,-67.85544 -64,-82 -51.43079,-22.97976 -113.48637,-0.1898 -168.60657,11.4274 -11.99126,2.52729 -23.12962,8.119 -34.5632,12.52929 -77.78057,30.00241 -156.7954,57.65845 -231.45946,94.74266 C 441.42164,370.48821 386.13607,400.73204 336,438 296.64703,467.25249 259.50635,500.27104 227.86529,537.73046 201.10538,569.41116 174.28404,603.06768 160,642 145.41723,681.74654 144,768 144,768 l -116,104 41.464789,8.18568 54.999551,-50.85797 -48.287929,56.95386 33.273289,23.51721 z"
       id="path3783"
       inkscape:connector-curvature="0"
       sodipodi:nodetypes="caaaaaaaaaaaaaccccccc" />
    <path
       style="fill:#ffffff;stroke:none"
       d="m 736,252 c 0,0 22.05685,17.23705 29.75,28.65625 9.93988,14.75409 15.29729,32.34029 19.875,49.53125 7.33726,27.55403 11.84375,84.71875 11.84375,84.71875 L 813.5,412.21875 c 0,0 -5.56191,-58.17046 -13.84375,-86 -5.46391,-18.36044 -12.93432,-36.43911 -23.375,-52.5 -6.63674,-10.2093 -24.46875,-27.125 -24.46875,-27.125 z M 630.15625,297.84375 620,302 c 0,0 36.65833,45.28048 49.75,71.0625 C 680.14531,393.53446 692,438.25 692,438.25 l 12.71875,-4.34375 c 0,0 -13.67166,-43.86464 -24.34375,-64.0625 -13.67001,-25.87169 -50.21875,-72 -50.21875,-72 z M 480.9375,362.3331 465.125,370.83111 c 0,0 20.25961,14.01208 28.4375,23.07514 29.29024,32.46059 71.78125,109.78125 71.78125,109.78125 l 18.3125,3.03125 c 0,0 -47.10107,-87.17377 -79.3125,-124.29419 -6.73897,-7.76599 -23.40625,-20.09146 -23.40625,-20.09146 z m -131.80306,80.6615 -11.0625,8.77725 c 0,0 43.0866,34.49764 60.39681,55.72815 15.36423,18.84381 37.65625,62.46875 37.65625,62.46875 l 12.5625,-6.5 c 0,0 -23.69212,-43.66037 -39.28125,-62.8125 -17.55199,-21.56361 -60.27181,-57.66165 -60.27181,-57.66165 z m -105.59055,92.89503 -7.65625,9.06252 c 0,0 30.95515,20.54821 43.58111,33.9541 16.74244,17.77666 41.48374,60.38186 41.48374,60.38186 l 7.34375,-6.375 c 0,0 -22.92402,-44.92921 -39.79624,-63.25686 -12.69353,-13.7885 -44.95611,-33.76662 -44.95611,-33.76662 z m -71.14298,110.05473 c 0,0 29.55583,27.08043 39.24021,44.25283 5.86609,10.40178 10.64013,34.20906 10.64013,34.20906 l 23.25,-16.4375 c 0,0 -13.8883,-21.26495 -23.15685,-29.75196 -14.62455,-13.39138 -49.97349,-32.27243 -49.97349,-32.27243 z"
       id="path3785"
       inkscape:connector-curvature="0"
       sodipodi:nodetypes="caaccaaccccaccacccaccacccaccacccaccaccaccac" />
    <path
       style="fill:#ffffff;stroke:#000000;stroke-width:1px;stroke-linecap:butt;stroke-linejoin:miter;stroke-opacity:1"
       d="m 868.92885,222.33709 c 0,0 25.18382,9.91459 37.5206,13.29588 C 941.82132,245.32776 976,288 976,288 c 0,0 -26.02784,-45.87556 -48,-58 -17.38429,-9.59281 -59.07115,-7.66291 -59.07115,-7.66291 z"
       id="path3807"
       inkscape:connector-curvature="0"
       sodipodi:nodetypes="cscac" />
    <path
       style="fill:#ffffff;stroke:none"
       d="m 174,786 c 0,0 20.40482,-41.4299 36,-58 76.69773,-81.49241 175.09651,-141.63919 274,-194 129.57528,-68.59886 265.39504,-155.59375 412,-154 36.81654,0.40024 52,22 52,22 0,0 -53.50159,15.10566 -130,14.18343 -20.64592,-0.2489 -50.41311,6.76195 -74.32861,14.92686 C 626.8778,470.98439 517.96682,532.34349 411.8877,595.41413 359.87758,626.33738 310.08491,661.3406 263.41413,699.85213 231.49163,726.19375 174,786 174,786 z"
       id="path3824"
       inkscape:connector-curvature="0"
       sodipodi:nodetypes="caascsaaac" />
  </g>
  <g
     inkscape:groupmode="layer"
     id="layer4"
     inkscape:label="tangrarm"
     style="opacity:1">
    <path
       style="fill:#ffffff;stroke:none"
       d="m 576,244 c 0,0 27.29613,-6.10292 40,-2 12.18644,3.93581 24.45248,12.45769 30,24 6.93102,14.42085 1.75843,32.09692 0,48 -5.03047,45.49511 -30,134 -30,134 l 9.5206,21.15357 -55.63296,26.08984 z"
       id="path3803"
       inkscape:connector-curvature="0"
       sodipodi:nodetypes="caaacccc" />
    <path
       style="fill:#000000;stroke:none"
       d="m 534,278 c 6.61014,-15.1245 20.29894,-28.90871 36,-34 14.70923,-4.76967 32.76032,-1.98886 46,6 11.87765,7.16701 24.80515,20.15095 24,34 -3.93686,67.71587 -32,168 -32,168 l 52,92 36.5503,41.26626 -39.08282,17.63313 -33.63313,-26.16566 -25.10061,7.81657 L 532,476 c 0,0 -24.43246,-137.5205 2,-198 z"
       id="path3004"
       inkscape:connector-curvature="0"
       sodipodi:nodetypes="aaasccccccca" />
  </g>
  <g
     inkscape:label="reference"
     inkscape:groupmode="layer"
     id="layer1"
     transform="translate(0,-28.362183)"
     style="opacity:0.64274334;display:none"
     sodipodi:insensitive="true">
    <image
       sodipodi:absref="C:\Users\Stuart\Projects\addons\sango\tangosushi\Tango-Show-Buenos-Aires-01.jpg"
       xlink:href="Tango-Show-Buenos-Aires-01.jpg"
       y="-323.39011"
       x="58.761841"
       id="image2993"
       height="1414.3237"
       width="1060.7427" />
  </g>
</svg>
