<?xml version="1.0" encoding="UTF-8" standalone="no"?>
<!-- Created with Inkscape (http://www.inkscape.org/) -->

<svg
   xmlns:dc="http://purl.org/dc/elements/1.1/"
   xmlns:cc="http://creativecommons.org/ns#"
   xmlns:rdf="http://www.w3.org/1999/02/22-rdf-syntax-ns#"
   xmlns:svg="http://www.w3.org/2000/svg"
   xmlns="http://www.w3.org/2000/svg"
   xmlns:xlink="http://www.w3.org/1999/xlink"
   xmlns:sodipodi="http://sodipodi.sourceforge.net/DTD/sodipodi-0.dtd"
   xmlns:inkscape="http://www.inkscape.org/namespaces/inkscape"
   width="1024"
   height="1024"
   id="svg2"
   version="1.1"
   inkscape:version="0.48.1 "
   sodipodi:docname="tangosushi-logo.svg">
  <defs
     id="defs4" />
  <sodipodi:namedview
     id="base"
     pagecolor="#ffffff"
     bordercolor="#666666"
     borderopacity="1.0"
     inkscape:pageopacity="0.0"
     inkscape:pageshadow="2"
     inkscape:zoom="0.5"
     inkscape:cx="312.84184"
     inkscape:cy="509.72076"
     inkscape:document-units="px"
     inkscape:current-layer="layer7"
     showgrid="false"
     inkscape:window-width="1280"
     inkscape:window-height="738"
     inkscape:window-x="-8"
     inkscape:window-y="-8"
     inkscape:window-maximized="1"
     borderlayer="true"
     inkscape:snap-page="false" />
  <metadata
     id="metadata7">
    <rdf:RDF>
      <cc:Work
         rdf:about="">
        <dc:format>image/svg+xml</dc:format>
        <dc:type
           rdf:resource="http://purl.org/dc/dcmitype/StillImage" />
        <dc:title />
      </cc:Work>
    </rdf:RDF>
  </metadata>
  <g
     inkscape:groupmode="layer"
     id="layer6"
     inkscape:label="bg"
     sodipodi:insensitive="true">
    <rect
       style="fill:#ffffff;fill-opacity:1;stroke:none"
       id="rect3012"
       width="1024"
       height="1024"
       x="0"
       y="0" />
  </g>
  <g
     inkscape:groupmode="layer"
     id="layer8"
     inkscape:label="words"
     style="display:none">
    <text
       xml:space="preserve"
       style="font-size:92.95893097px;font-style:normal;font-variant:normal;font-weight:bold;font-stretch:normal;text-align:center;line-height:100%;letter-spacing:25.82192421px;writing-mode:lr-tb;text-anchor:middle;fill:#000000;fill-opacity:1;stroke:none;font-family:BankGothic Md BT;-inkscape-font-specification:BankGothic Md BT Bold"
       x="516.80426"
       y="995.50775"
       id="text3827"
       sodipodi:linespacing="100%"><tspan
         sodipodi:role="line"
         id="tspan3829"
         x="529.71521"
         y="995.50775">TANGOSUSHI</tspan></text>
  </g>
  <g
     inkscape:groupmode="layer"
     id="layer5"
     inkscape:label="tanglarm">
    <path
       style="fill:#000000;stroke:none"
       d="m 558,132 36,-22 18,10 14,26 -20,120 -2.85983,36.37679 72.70598,-43.60756 L 704,242 l 26,6 -20,102 -112,68 -64,38 0,-102 z"
       id="path3007"
       inkscape:connector-curvature="0"
       sodipodi:nodetypes="cccccccccccccc" />
  </g>
  <g
     inkscape:groupmode="layer"
     id="layer2"
     inkscape:label="tango"
     style="opacity:1">
    <path
       style="fill:#000000;stroke:none"
       d="M 626,118 728,36 790,74 845.19534,135.09432 660,216 666,316 637.10079,366.5041 740,448 l 42,94 -10,182 -6,82 48,34 -20,22 -45.8874,-6.28954 L 686,820 706,578 606,454 508,622 276,842 236.05691,834.06225 206,906 106,902 210,780 420,538 l 62,-282 28,-72 42,-54 36,-26 z"
       id="path2999"
       inkscape:connector-curvature="0"
       sodipodi:nodetypes="ccccccccccccccccccccccccccccc" />
    <path
       style="fill:#ffffff;stroke:none"
       d="M 656,232 615.62529,198.09821 604.83502,166.06942 614,124 l -22,42 11.7057,29.45687 z"
       id="path3801"
       inkscape:connector-curvature="0"
       sodipodi:nodetypes="ccccccc" />
  </g>
  <g
     inkscape:groupmode="layer"
     id="layer3"
     inkscape:label="sushi"
     style="opacity:1">
    <path
       style="fill:#000000;stroke:#000000;stroke-width:1px;stroke-linecap:butt;stroke-linejoin:miter;stroke-opacity:1"
       d="m 926,390 4,94 -44,34 -108,16 -136,64 -390,234 -52,-26 -14,-38 54,-146 586,-294 z"
       id="path3787"
       inkscape:connector-curvature="0" />
    <path
       style="fill:#ffffff;stroke:none"
       d="m 188,634 -18,48 40,116 40,24 200,-120 230,-136 106,-42 102,-16 36,-28 -6,-136 -46,-40 -230,48 -258,122 z"
       id="path3009"
       inkscape:connector-curvature="0"
       sodipodi:nodetypes="cccccccccccccc" />
  </g>
  <g
     inkscape:groupmode="layer"
     id="layer7"
     inkscape:label="shrimp"
     style="opacity:1">
    <path
       style="fill:#000000;stroke:#000000;stroke-width:1px;stroke-linecap:butt;stroke-linejoin:miter;stroke-opacity:1"
       d="M 168,824 224,748 498,562 746,444 948,412 992.36921,386.20066 996,306 932,224 763.39343,235.4274 728.83023,247.95669 497.37077,342.69935 336,438 227.86529,537.73046 160,642 144,768 28,872 60.381963,880.18568 124.46434,829.32771 76.176411,879.01531 104,888 z"
       id="path3783"
       inkscape:connector-curvature="0"
       sodipodi:nodetypes="ccccccccccccccccccccc" />
    <path
       style="fill:#ffffff;stroke:none"
       d="m 736,248 29.75,32.65625 19.875,49.53125 11.84375,84.71875 16.03125,-2.6875 -13.84375,-86 -23.375,-52.5 -24.46875,-27.125 z M 630.15625,297.84375 620,302 669.75,373.0625 692,438.25 704.71875,433.90625 680.375,369.84375 z m -149.21875,70.96875 -15.8125,5.90625 28.4375,19.1875 71.78125,109.78125 18.3125,3.03125 L 504.34375,387.75 z M 339.0625,448.75 328,454 l 70.46875,53.5 37.65625,62.46875 12.5625,-6.5 -39.28125,-62.8125 z M 239.65625,534.59375 232,542 l 47.46875,36.90625 48.75,71.28125 7.34375,-6.375 L 288.5,569.65625 z m -50.90625,122.25 33.53125,67.5625 23.25,-16.4375 z"
       id="path3785"
       inkscape:connector-curvature="0"
       sodipodi:nodetypes="ccccccccccccccccccccccccccccccccccccccccc" />
    <path
       style="fill:#ffffff;stroke:#000000;stroke-width:1px;stroke-linecap:butt;stroke-linejoin:miter;stroke-opacity:1"
       d="m 878,234 44,12 54,42 -48,-58 z"
       id="path3807"
       inkscape:connector-curvature="0"
       sodipodi:nodetypes="ccccc" />
    <path
       style="fill:#ffffff;stroke:none"
       d="M 174,786 210,728 484,534 728,414 942,400 744,430 490,550 218,738 z"
       id="path3824"
       inkscape:connector-curvature="0"
       sodipodi:nodetypes="ccccccccc" />
  </g>
  <g
     inkscape:groupmode="layer"
     id="layer4"
     inkscape:label="tangrarm"
     style="opacity:1">
    <path
       style="fill:#ffffff;stroke:none"
       d="m 576,244 40,-2 30,24 8,26 -38,156 16,38 -66,-40 z"
       id="path3803"
       inkscape:connector-curvature="0"
       sodipodi:nodetypes="cccccccc" />
    <path
       style="fill:#000000;stroke:none"
       d="m 534,278 36,-34 46,6 24,34 -32,168 52,92 42,34 -30,14 -30,-8 -36,6 -74,-114 z"
       id="path3004"
       inkscape:connector-curvature="0"
       sodipodi:nodetypes="cccccccccccc" />
  </g>
  <g
     inkscape:label="reference"
     inkscape:groupmode="layer"
     id="layer1"
     transform="translate(0,-28.362183)"
     sodipodi:insensitive="true"
     style="opacity:0.64274334;display:none">
    <image
       sodipodi:absref="C:\Users\Stuart\Projects\addons\sango\tangosushi\Tango-Show-Buenos-Aires-01.jpg"
       xlink:href="Tango-Show-Buenos-Aires-01.jpg"
       y="-303.4079"
       x="33.329929"
       id="image2993"
       height="1414.3237"
       width="1060.7427" />
  </g>
</svg>
