<?xml version="1.0" encoding="UTF-8" standalone="no"?>
<!-- Created with Inkscape (http://www.inkscape.org/) -->

<svg
   xmlns:dc="http://purl.org/dc/elements/1.1/"
   xmlns:cc="http://creativecommons.org/ns#"
   xmlns:rdf="http://www.w3.org/1999/02/22-rdf-syntax-ns#"
   xmlns:svg="http://www.w3.org/2000/svg"
   xmlns="http://www.w3.org/2000/svg"
   xmlns:xlink="http://www.w3.org/1999/xlink"
   xmlns:sodipodi="http://sodipodi.sourceforge.net/DTD/sodipodi-0.dtd"
   xmlns:inkscape="http://www.inkscape.org/namespaces/inkscape"
   width="1024"
   height="1024"
   id="svg2"
   version="1.1"
   inkscape:version="0.48.1 "
   sodipodi:docname="tangosushi-logo.svg">
  <defs
     id="defs4" />
  <sodipodi:namedview
     id="base"
     pagecolor="#ffffff"
     bordercolor="#666666"
     borderopacity="1.0"
     inkscape:pageopacity="0.0"
     inkscape:pageshadow="2"
     inkscape:zoom="0.5"
     inkscape:cx="196.84184"
     inkscape:cy="489.72076"
     inkscape:document-units="px"
     inkscape:current-layer="layer7"
     showgrid="false"
     inkscape:window-width="1280"
     inkscape:window-height="738"
     inkscape:window-x="-8"
     inkscape:window-y="-8"
     inkscape:window-maximized="1"
     borderlayer="true"
     inkscape:snap-page="false" />
  <metadata
     id="metadata7">
    <rdf:RDF>
      <cc:Work
         rdf:about="">
        <dc:format>image/svg+xml</dc:format>
        <dc:type
           rdf:resource="http://purl.org/dc/dcmitype/StillImage" />
        <dc:title></dc:title>
      </cc:Work>
    </rdf:RDF>
  </metadata>
  <g
     inkscape:groupmode="layer"
     id="layer6"
     inkscape:label="bg">
    <rect
       style="fill:#ffffff;fill-opacity:1;stroke:none"
       id="rect3012"
       width="1024"
       height="1024"
       x="0"
       y="0" />
  </g>
  <g
     inkscape:groupmode="layer"
     id="layer5"
     inkscape:label="tanglarm"
     style="opacity:1">
    <path
       style="fill:#000000;stroke:none;stroke-width:1px;stroke-linecap:butt;stroke-linejoin:miter;stroke-opacity:1"
       d="m 532,154 36,-22 18,10 14,26 64,252 70,64 18,6 0,42 -46,2 -66,-46 -42,-58 z"
       id="path3007"
       inkscape:connector-curvature="0" />
  </g>
  <g
     inkscape:groupmode="layer"
     id="layer2"
     inkscape:label="tango">
    <path
       style="fill:#000000;stroke:none"
       d="M 600,140 702,58 764,96 819.19534,157.09432 634,238 640,338 611.10079,388.5041 714,470 l 42,94 -10,182 -6,82 48,34 -20,22 -45.8874,-6.28954 L 660,842 680,600 580,476 482,644 250,864 210.05691,856.06225 180,928 80,924 184,802 394,560 l 62,-282 28,-72 42,-54 36,-26 z"
       id="path2999"
       inkscape:connector-curvature="0"
       sodipodi:nodetypes="ccccccccccccccccccccccccccccc" />
    <path
       style="fill:#ffffff;stroke:none"
       d="M 630,254 589.62529,220.09821 578.83502,188.06942 588,146 l -22,42 11.7057,29.45687 z"
       id="path3801"
       inkscape:connector-curvature="0"
       sodipodi:nodetypes="ccccccc" />
  </g>
  <g
     inkscape:groupmode="layer"
     id="layer3"
     inkscape:label="sushi">
    <path
       style="fill:#000000;stroke:#000000;stroke-width:1px;stroke-linecap:butt;stroke-linejoin:miter;stroke-opacity:1"
       d="m 900,412 4,94 -44,34 -108,16 -136,64 -390,234 -52,-26 -14,-38 54,-146 586,-294 z"
       id="path3787"
       inkscape:connector-curvature="0" />
    <path
       style="fill:#ffffff;stroke:#000000;stroke-width:1px;stroke-linecap:butt;stroke-linejoin:miter;stroke-opacity:1"
       d="m 162,656 -18,48 40,116 40,24 200,-120 230,-136 106,-42 102,-16 36,-28 -6,-136 -46,-40 -230,48 -258,122 z"
       id="path3009"
       inkscape:connector-curvature="0"
       sodipodi:nodetypes="cccccccccccccc" />
  </g>
  <g
     inkscape:groupmode="layer"
     id="layer7"
     inkscape:label="shrimp">
    <path
       style="fill:#000000;stroke:#000000;stroke-width:1px;stroke-linecap:butt;stroke-linejoin:miter;stroke-opacity:1"
       d="M 142,846 198,770 472,584 720,466 922,434 966.36921,408.20066 970,328 914,236 737.39343,257.4274 702.83023,269.95669 471.37077,364.69935 310,460 201.86529,559.73046 134,664 118,790 2,894 34.381963,902.18568 98.464343,851.32771 50.176411,901.01531 78,910 z"
       id="path3783"
       inkscape:connector-curvature="0"
       sodipodi:nodetypes="ccccccccccccccccccccc" />
    <path
       style="fill:#ffffff;stroke:none"
       d="M 917.50186,425.32166 782,432 777.65051,346.22935 754.28528,295.72795 717.79819,270.59135 710,270 739.73532,302.66053 759.61563,352.18932 774,438 690,458 654.36335,391.84348 604.14776,319.85114 594,324 643.76471,395.05882 670,472 558,526 476.3282,411.75226 454.92735,390.80288 435.11504,400.72566 463.57773,419.90073 544,528 426,584 383.41634,522.66148 313.05782,470.74567 302,476 372.48431,529.508 410,588 312,666 268.49743,585.65961 213.66288,556.59968 206,564 259.46502,594.91925 306,674 218,724 162.7581,678.83791 192,740 166.42373,775.08736 141.87598,831.38991 182.6188,767.06976 449.57207,584.22485 720.96279,461.20451 z"
       id="path3785"
       inkscape:connector-curvature="0"
       sodipodi:nodetypes="cccccccccccccccccccccccccccccccccccccccccc" />
  </g>
  <g
     inkscape:groupmode="layer"
     id="layer4"
     inkscape:label="tangrarm"
     style="opacity:1">
    <path
       style="fill:#ffffff;stroke:none"
       d="m 550,266 40,-2 30,24 8,26 -38,156 16,38 -66,-40 z"
       id="path3803"
       inkscape:connector-curvature="0"
       sodipodi:nodetypes="cccccccc" />
    <path
       style="fill:#000000;stroke:none;stroke-width:1px;stroke-linecap:butt;stroke-linejoin:miter;stroke-opacity:1"
       d="m 508,300 36,-34 46,6 24,34 -32,168 52,92 42,34 -30,14 -30,-8 -36,6 -74,-114 z"
       id="path3004"
       inkscape:connector-curvature="0"
       sodipodi:nodetypes="cccccccccccc" />
  </g>
  <g
     inkscape:label="reference"
     inkscape:groupmode="layer"
     id="layer1"
     transform="translate(0,-28.362183)"
     sodipodi:insensitive="true"
     style="opacity:0.64274334;display:none">
    <image
       sodipodi:absref="C:\Users\Stuart\Projects\addons\sango\tangosushi\Tango-Show-Buenos-Aires-01.jpg"
       xlink:href="Tango-Show-Buenos-Aires-01.jpg"
       width="1060.7427"
       height="1414.3237"
       id="image2993"
       x="33.329929"
       y="-303.4079" />
  </g>
</svg>
