<?xml version="1.0" encoding="UTF-8" standalone="no"?>
<!-- Created with Inkscape (http://www.inkscape.org/) -->

<svg
   xmlns:dc="http://purl.org/dc/elements/1.1/"
   xmlns:cc="http://creativecommons.org/ns#"
   xmlns:rdf="http://www.w3.org/1999/02/22-rdf-syntax-ns#"
   xmlns:svg="http://www.w3.org/2000/svg"
   xmlns="http://www.w3.org/2000/svg"
   xmlns:xlink="http://www.w3.org/1999/xlink"
   xmlns:sodipodi="http://sodipodi.sourceforge.net/DTD/sodipodi-0.dtd"
   xmlns:inkscape="http://www.inkscape.org/namespaces/inkscape"
   width="1024"
   height="1024"
   id="svg2"
   version="1.1"
   inkscape:version="0.48.1 "
   sodipodi:docname="tangosushi-logo.svg">
  <defs
     id="defs4" />
  <sodipodi:namedview
     id="base"
     pagecolor="#ffffff"
     bordercolor="#666666"
     borderopacity="1.0"
     inkscape:pageopacity="0.0"
     inkscape:pageshadow="2"
     inkscape:zoom="0.4"
     inkscape:cx="347.1552"
     inkscape:cy="460.7395"
     inkscape:document-units="px"
     inkscape:current-layer="layer3"
     showgrid="false"
     inkscape:window-width="1280"
     inkscape:window-height="738"
     inkscape:window-x="-8"
     inkscape:window-y="-8"
     inkscape:window-maximized="1"
     borderlayer="true"
     inkscape:snap-page="false"
     showguides="true"
     inkscape:guide-bbox="true" />
  <metadata
     id="metadata7">
    <rdf:RDF>
      <cc:Work
         rdf:about="">
        <dc:format>image/svg+xml</dc:format>
        <dc:type
           rdf:resource="http://purl.org/dc/dcmitype/StillImage" />
        <dc:title />
      </cc:Work>
    </rdf:RDF>
  </metadata>
  <g
     inkscape:groupmode="layer"
     id="layer6"
     inkscape:label="bg"
     sodipodi:insensitive="true">
    <rect
       style="fill:#ffffff;fill-opacity:1;stroke:none"
       id="rect3012"
       width="1024"
       height="1024"
       x="0"
       y="0" />
  </g>
  <g
     inkscape:groupmode="layer"
     id="layer8"
     inkscape:label="words"
     style="display:none">
    <text
       xml:space="preserve"
       style="font-size:92.95893097px;font-style:normal;font-variant:normal;font-weight:bold;font-stretch:normal;text-align:center;line-height:100%;letter-spacing:25.82192421px;writing-mode:lr-tb;text-anchor:middle;fill:#000000;fill-opacity:1;stroke:none;font-family:BankGothic Md BT;-inkscape-font-specification:BankGothic Md BT Bold"
       x="516.80426"
       y="995.50775"
       id="text3827"
       sodipodi:linespacing="100%"><tspan
         sodipodi:role="line"
         id="tspan3829"
         x="529.71521"
         y="995.50775">TANGOSUSHI</tspan></text>
  </g>
  <g
     inkscape:groupmode="layer"
     id="layer5"
     inkscape:label="tanglarm">
    <path
       style="fill:#000000;stroke:none"
       d="m 558,132 36,-22 18,10 14,26 -20,120 -2.85983,36.37679 72.70598,-43.60756 34.62867,-13.89153 13.05036,19.66906 -22.15827,18.54676 3.82733,8.28778 -145.29496,95.55395 -27.33813,-33.65468 z"
       id="path3007"
       inkscape:connector-curvature="0"
       sodipodi:nodetypes="cccccccccccccc" />
  </g>
  <g
     inkscape:groupmode="layer"
     id="layer2"
     inkscape:label="tango">
    <path
       style="fill:#000000;stroke:none"
       d="M 626,118 728,36 c 0,0 43.35121,22.515224 62,38 21.1149,17.53248 55.19534,61.09432 55.19534,61.09432 L 660,216 666,316 637.10079,366.5041 740,448 l 42,94 -10,182 -6,82 c 0,0 13.81964,17.14678 28.01778,24.91717 C 803.10662,835.89133 802.02662,855.44847 794,862 765.53713,885.23209 686,839.98222 686,839.98222 L 706,578 606,454 508,622 276,842 248.77287,834.06225 c 0,0 -5.23926,12.67057 -20.47671,32.42634 -21.67978,28.10845 -70.73296,64.9774 -93.1422,52.22737 -12.90607,-7.34308 1.51826,-30.23628 7.17734,-43.96444 9.02499,-21.89342 28.59535,-35.99536 41.68247,-67.31013 C 190.51539,791.88437 210,780 210,780 L 420,538 c 0,0 34.14178,-189.87492 62,-282 7.45363,-24.64862 15.29509,-49.60142 28,-72 11.25071,-19.83485 25.59137,-38.1647 42,-54 10.65131,-10.27914 21.33478,-23.98945 36,-26 13.37387,-1.83351 38,14 38,14 z"
       id="path2999"
       inkscape:connector-curvature="0"
       sodipodi:nodetypes="ccaccccccccsaccccccssssccaaaac" />
    <path
       style="fill:#ffffff;stroke:none"
       d="m 656,232 c 0,0 -30.47174,-19.38426 -40.37471,-33.90179 -6.3485,-9.30676 -10.16844,-20.78012 -10.79027,-32.02879 C 604.04284,151.73925 614,124 614,124 c 0,0 -21.17646,26.21711 -22,42 -0.55057,10.55147 5.14808,21.17228 11.7057,29.45687 C 616.90417,212.1312 656,232 656,232 z"
       id="path3801"
       inkscape:connector-curvature="0"
       sodipodi:nodetypes="caacaac" />
  </g>
  <g
     inkscape:groupmode="layer"
     id="layer3"
     inkscape:label="sushi"
     style="opacity:1">
    <path
       style="fill:#000000;stroke:none;stroke-width:1px;stroke-linecap:butt;stroke-linejoin:miter;stroke-opacity:1"
       d="m 926,390 c 12.18895,33.70273 -9.70687,75.65065 -34,102 -29.96489,32.50119 -81.1921,35.00184 -122,52 -42.71767,17.79366 -87.70182,30.65121 -128.58788,52.32479 C 601.2578,617.61047 566.27679,647.49822 528,672 c -57.97163,37.10887 -111.53848,70.21229 -176,108 -46.56022,27.29386 -61.03712,22.21244 -92,18 -19.20236,-2.61245 -39.07556,-11.55997 -52,-26 -9.00275,-10.05846 -14.24781,-24.5033 -14,-38 0.74092,-40.35269 18.55602,-82.40749 46,-112 148.60365,-160.23753 367.68257,-303.82916 586,-294 39.18049,1.764 86.66115,25.11779 100,62 z"
       id="path3787"
       inkscape:connector-curvature="0"
       sodipodi:nodetypes="aaaaasaaaaaa" />
    <path
       style="fill:#ffffff;stroke:none"
       d="m 188,634 c -9.96312,13.88295 -20.04908,31.03529 -18,48 3.96902,32.86035 31.91797,59.29293 56,82 11.31317,10.66724 24.47149,23.19804 40,24 67.61186,3.49179 124.6336,-53.45486 184,-86 C 520.19932,663.51617 576.15561,611.6998 652.75152,573.26627 692.16353,553.4905 741.32369,539.70056 786,524 c 23.86728,-8.38766 49.6952,-12.06283 72,-24 13.40352,-7.17334 28.0857,-15.02021 36,-28 22.59923,-37.06372 38.26588,-87.00086 24,-128 -6.67765,-19.19109 -26.33741,-34.87445 -46,-40 -75.78587,-19.7555 -155.74965,23.08688 -230,48 -90.18897,30.26099 -177.56055,71.21345 -258,122 -71.31373,45.0249 -146.82696,91.48065 -196,160 z"
       id="path3009"
       inkscape:connector-curvature="0"
       sodipodi:nodetypes="aaaaasaaaaaaaa" />
  </g>
  <g
     inkscape:groupmode="layer"
     id="layer7"
     inkscape:label="shrimp"
     style="opacity:1">
    <path
       style="fill:#000000;stroke:none;stroke-width:1px;stroke-linecap:butt;stroke-linejoin:miter;stroke-opacity:1;fill-opacity:1"
       d="m 168,824 c 0,0 33.49046,-54.01039 56,-76 C 302.7426,671.07623 398.8029,613.00378 494.36687,558.36687 581.878,508.33402 672.52841,460.22275 769.61535,433.10061 827.28345,416.99048 891.20528,430.96066 948,412 964.22782,406.58242 983.5047,400.83326 992.36921,386.20066 1006.2352,363.31218 1006.376,330.66753 996,306 c -5.2817,-12.55656 -30.4738,-27.22902 -30.4738,-27.22902 0,0 -14.50904,-44.94473 -33.5262,-54.77098 -50.04526,-25.85861 -113.48637,-0.1898 -168.60657,11.4274 -11.99126,2.52729 -23.12962,8.119 -34.5632,12.52929 -77.78057,30.00241 -157.75714,55.78204 -231.45946,94.74266 -54.72408,28.92831 -108.45473,61.49516 -154.91773,102.39457 -67.575,59.48341 -137.28902,123.46355 -176.29919,204.59839 C 148.76839,685.85124 144,768 144,768 l -116,104 41.464789,8.18568 54.999551,-50.85797 -48.287929,56.95386 33.273289,23.51721 z"
       id="path3783"
       inkscape:connector-curvature="0"
       sodipodi:nodetypes="caaaaaacaaaaaaccccccc" />
    <path
       style="fill:#ffffff;stroke:none"
       d="m 736,252 c 0,0 14.99061,15.48393 20.13462,24.81009 5.03443,9.1275 10.02523,29.62104 10.02523,29.62104 0,0 21.98252,19.99606 27.15746,33.37175 9.04692,23.38359 4.15144,75.10337 4.15144,75.10337 L 813.5,412.21875 c 0,0 3.51178,-52.73897 -6.15144,-76.38462 -5.71687,-13.98903 -29.05198,-34.80463 -29.05198,-34.80463 0,0 -5.94232,-21.64197 -11.63071,-31.15691 -4.97049,-8.31411 -19.16992,-21.83999 -19.16992,-21.83999 z"
       id="path3016"
       inkscape:connector-curvature="0"
       sodipodi:nodetypes="cacaccacacc" />
    <path
       style="fill:#ffffff;stroke:none"
       d="M 635.91165,296.4049 620,302 c 0,0 15.69261,12.53497 20.90253,20.89699 6.3039,10.11788 11.55001,33.84663 11.55001,33.84663 0,0 17.8485,18.88433 23.79995,30.25081 C 684.54322,402.82861 692,438.25 692,438.25 l 12.71875,-4.34375 c 0,0 -7.12863,-37.6085 -15.68299,-54.44712 -5.79228,-11.40168 -23.51177,-30.31727 -23.51177,-30.31727 0,0 -5.10838,-23.46797 -11.20905,-33.56272 -4.58208,-7.58195 -18.40329,-19.17424 -18.40329,-19.17424 z"
       id="path3014"
       inkscape:connector-curvature="0"
       sodipodi:nodetypes="ccacaccacac" />
    <path
       style="fill:#ffffff;stroke:none"
       d="m 477.87838,364.62744 -12.75338,6.20367 c 0,0 17.50519,11.53868 24.12095,19.47802 7.31757,8.78154 16.3784,30.1282 16.3784,30.1282 0,0 25.3237,25.46049 34.81262,40.53227 7.87716,12.51173 17.8486,40.60498 17.8486,40.60498 l 13.09511,-10.90996 c 0,0 -9.20812,-23.69871 -16.20224,-34.19502 -9.2998,-13.9565 -33.66743,-37.38898 -33.66743,-37.38898 0,0 -11.69735,-24.16839 -20.22638,-34.36172 -6.59831,-7.88585 -23.40625,-20.09146 -23.40625,-20.09146 z"
       id="path3012"
       inkscape:connector-curvature="0"
       sodipodi:nodetypes="ccacaccacac" />
    <path
       style="fill:#ffffff;stroke:none"
       d="m 348.47619,448.56785 -10.03152,8.77725 c 0,0 18.61874,10.36453 26.08269,17.7814 7.78861,7.73949 18.72668,27.09929 18.72668,27.09929 0,0 28.28369,16.7801 37.86674,29.62555 8.16498,10.94462 15.00422,38.11741 15.00422,38.11741 l 12.5625,-6.5 c 0,0 -7.42601,-27.32165 -15.81672,-38.28928 -9.88919,-12.92631 -38.67924,-29.79743 -38.67924,-29.79743 0,0 -10.79637,-20.04571 -18.66418,-28.06605 -7.68281,-7.83176 -27.05117,-18.74814 -27.05117,-18.74814 z"
       id="path3010"
       inkscape:connector-curvature="0"
       sodipodi:nodetypes="ccacaccacac" />
    <path
       style="fill:#ffffff;stroke:none"
       d="m 247.82354,544.93354 -7.93249,8.78628 c 0,0 13.99915,7.38485 19.74902,12.69299 5.74799,5.30641 14.22319,18.66754 14.22319,18.66754 0,0 19.76912,9.93932 27.11214,17.89858 9.36702,10.15311 19.97709,36.30918 19.97709,36.30918 l 7.34375,-6.375 c 0,0 -10.01672,-26.98212 -19.13334,-37.74668 -7.0267,-8.29686 -26.26839,-19.33608 -26.26839,-19.33608 0,0 -8.94966,-13.32965 -14.91069,-18.5738 -5.91345,-5.20228 -20.16028,-12.32301 -20.16028,-12.32301 z"
       id="path3008"
       inkscape:connector-curvature="0"
       sodipodi:nodetypes="ccacaccacac" />
    <path
       style="fill:#ffffff;stroke:none"
       d="m 184.95529,662.00477 c -4.06156,-1.91141 -13.11899,-3.0397 -13.11899,-3.0397 0,0 7.26571,3.90081 10.36991,6.56582 4.72814,4.05919 12.27639,14.09897 12.27639,14.09897 0,0 13.42221,7.26657 17.69985,13.27397 6.39618,8.98262 10.0988,31.50242 10.0988,31.50242 l 17.89653,-14.90794 c 0,0 -11.99432,-20.55218 -21.08596,-27.8101 -5.87537,-4.69035 -20.54407,-9.30671 -20.54407,-9.30671 0,0 -8.43484,-7.94952 -13.59246,-10.37673 z"
       id="path3785"
       inkscape:connector-curvature="0"
       sodipodi:nodetypes="acacaccaca" />
    <path
       style="fill:#ffffff;stroke:none;stroke-width:1px;stroke-linecap:butt;stroke-linejoin:miter;stroke-opacity:1"
       d="m 866.77058,218.73997 c 0,0 31.40679,6.10628 44.67887,14.393 19.2651,12.0286 47.24286,49.0978 47.24286,49.0978 0,0 -14.14862,-40.65095 -30.69231,-52.23077 -17.00112,-11.9 -61.22942,-11.26003 -61.22942,-11.26003 z"
       id="path3807"
       inkscape:connector-curvature="0"
       sodipodi:nodetypes="cacac" />
    <path
       style="fill:#ffffff;stroke:none"
       d="m 181.30755,783.56415 c 0,0 21.27483,-46.77263 38.43585,-65.30755 C 292.69884,639.4604 388.91487,583.90148 484,534 613.82163,465.86851 749.39504,378.40625 896,380 c 36.81654,0.40024 52,22 52,22 0,0 -53.50159,15.10566 -130,14.18343 -20.64592,-0.2489 -50.41311,6.76195 -74.32861,14.92686 -116.79359,39.8741 -226.25439,100.3175 -331.78369,164.30384 -66.99675,40.62262 -132.93285,84.73058 -189.883,138.53988 -15.54698,14.68956 -40.69715,49.61014 -40.69715,49.61014 z"
       id="path3824"
       inkscape:connector-curvature="0"
       sodipodi:nodetypes="caascsaaac" />
  </g>
  <g
     inkscape:groupmode="layer"
     id="layer9"
     inkscape:label="highlight"
     style="display:inline">
    <path
       style="fill:#ffffff;stroke:none"
       d="m 576,244 c 0,0 27.29613,-6.10292 40,-2 12.18644,3.93581 24.45248,12.45769 30,24 6.93102,14.42085 1.75843,32.09692 0,48 -5.03047,45.49511 -30,134 -30,134 l 9.5206,21.15357 -55.63296,26.08984 z"
       id="path3803"
       inkscape:connector-curvature="0"
       sodipodi:nodetypes="caaacccc" />
  </g>
  <g
     inkscape:groupmode="layer"
     id="layer4"
     inkscape:label="tangrarm"
     style="opacity:1">
    <path
       style="fill:#000000;stroke:none"
       d="m 534,278 c 6.61014,-15.1245 20.29894,-28.90871 36,-34 14.70923,-4.76967 32.76032,-1.98886 46,6 11.87765,7.16701 24.80515,20.15095 24,34 -3.93686,67.71587 -32,168 -32,168 l 52,92 36.5503,41.26626 -39.08282,17.63313 -33.63313,-26.16566 -25.10061,7.81657 L 532,476 c 0,0 -24.43246,-137.5205 2,-198 z"
       id="path3004"
       inkscape:connector-curvature="0"
       sodipodi:nodetypes="aaasccccccca" />
  </g>
  <g
     inkscape:label="reference"
     inkscape:groupmode="layer"
     id="layer1"
     transform="translate(0,-28.362183)"
     style="opacity:0.64274334;display:none"
     sodipodi:insensitive="true">
    <image
       sodipodi:absref="C:\Users\Stuart\Projects\addons\sango\tangosushi\Tango-Show-Buenos-Aires-01.jpg"
       xlink:href="Tango-Show-Buenos-Aires-01.jpg"
       width="1060.7427"
       height="1414.3237"
       id="image2993"
       x="58.761841"
       y="-323.39011" />
  </g>
</svg>
