<?xml version="1.0" encoding="UTF-8" standalone="no"?>
<!-- Created with Inkscape (http://www.inkscape.org/) -->

<svg
   xmlns:dc="http://purl.org/dc/elements/1.1/"
   xmlns:cc="http://creativecommons.org/ns#"
   xmlns:rdf="http://www.w3.org/1999/02/22-rdf-syntax-ns#"
   xmlns:svg="http://www.w3.org/2000/svg"
   xmlns="http://www.w3.org/2000/svg"
   xmlns:xlink="http://www.w3.org/1999/xlink"
   xmlns:sodipodi="http://sodipodi.sourceforge.net/DTD/sodipodi-0.dtd"
   xmlns:inkscape="http://www.inkscape.org/namespaces/inkscape"
   width="1024"
   height="1024"
   id="svg2"
   version="1.1"
   inkscape:version="0.48.1 "
   sodipodi:docname="tangosushi-logo.svg">
  <defs
     id="defs4" />
  <sodipodi:namedview
     id="base"
     pagecolor="#ffffff"
     bordercolor="#666666"
     borderopacity="1.0"
     inkscape:pageopacity="0.0"
     inkscape:pageshadow="2"
     inkscape:zoom="0.5"
     inkscape:cx="196.84184"
     inkscape:cy="489.72076"
     inkscape:document-units="px"
     inkscape:current-layer="layer7"
     showgrid="false"
     inkscape:window-width="1280"
     inkscape:window-height="738"
     inkscape:window-x="-8"
     inkscape:window-y="-8"
     inkscape:window-maximized="1"
     borderlayer="true"
     inkscape:snap-page="true" />
  <metadata
     id="metadata7">
    <rdf:RDF>
      <cc:Work
         rdf:about="">
        <dc:format>image/svg+xml</dc:format>
        <dc:type
           rdf:resource="http://purl.org/dc/dcmitype/StillImage" />
        <dc:title></dc:title>
      </cc:Work>
    </rdf:RDF>
  </metadata>
  <g
     inkscape:label="reference"
     inkscape:groupmode="layer"
     id="layer1"
     transform="translate(0,-28.362183)"
     sodipodi:insensitive="true">
    <image
       sodipodi:absref="C:\Users\Stuart\Projects\addons\sango\tangosushi\Tango-Show-Buenos-Aires-01.jpg"
       xlink:href="Tango-Show-Buenos-Aires-01.jpg"
       width="1060.7427"
       height="1414.3237"
       id="image2993"
       x="33.329929"
       y="-303.4079" />
  </g>
  <g
     inkscape:groupmode="layer"
     id="layer6"
     inkscape:label="bg"
     style="opacity:1">
    <rect
       style="fill:#ffffff;fill-opacity:1;stroke:none"
       id="rect3012"
       width="1024"
       height="1024"
       x="0"
       y="0" />
  </g>
  <g
     inkscape:groupmode="layer"
     id="layer2"
     inkscape:label="tango"
     style="opacity:1">
    <path
       style="fill:#000000;stroke:none"
       d="M 600,140 702,58 764,96 819.19534,157.09432 634,238 640,338 611.10079,388.5041 714,470 l 42,94 -10,182 -6,82 48,34 -20,22 -45.8874,-6.28954 L 660,842 680,600 580,476 482,644 250,864 210.05691,856.06225 180,928 80,924 184,802 394,560 l 62,-282 28,-72 42,-54 36,-26 z"
       id="path2999"
       inkscape:connector-curvature="0"
       sodipodi:nodetypes="ccccccccccccccccccccccccccccc" />
  </g>
  <g
     inkscape:groupmode="layer"
     id="layer5"
     inkscape:label="tanglarm"
     style="opacity:1">
    <path
       style="fill:#000000;stroke:none;stroke-width:1px;stroke-linecap:butt;stroke-linejoin:miter;stroke-opacity:1"
       d="m 532,154 36,-22 18,10 14,26 64,252 70,64 18,6 0,42 -46,2 -66,-46 -42,-58 z"
       id="path3007"
       inkscape:connector-curvature="0" />
  </g>
  <g
     inkscape:groupmode="layer"
     id="layer3"
     inkscape:label="sushi">
    <path
       style="fill:#000000;stroke:#000000;stroke-width:1px;stroke-linecap:butt;stroke-linejoin:miter;stroke-opacity:1"
       d="m 900,412 4,94 -44,34 -108,16 -136,64 -390,234 -52,-26 -14,-38 54,-146 586,-294 z"
       id="path3787"
       inkscape:connector-curvature="0" />
    <path
       style="fill:#ffffff;stroke:#000000;stroke-width:1px;stroke-linecap:butt;stroke-linejoin:miter;stroke-opacity:1"
       d="m 162,656 -18,48 40,116 40,24 200,-120 230,-136 106,-42 102,-16 36,-28 -6,-136 -46,-40 -230,48 -258,122 z"
       id="path3009"
       inkscape:connector-curvature="0"
       sodipodi:nodetypes="cccccccccccccc" />
  </g>
  <g
     inkscape:groupmode="layer"
     id="layer7"
     inkscape:label="shrimp">
    <path
       style="fill:#000000;stroke:#000000;stroke-width:1px;stroke-linecap:butt;stroke-linejoin:miter;stroke-opacity:1"
       d="M 142,846 198,770 472,584 720,466 920,420 970,328 914,236 718,262 310,476 134,664 108,764 46,850 96,930 z"
       id="path3783"
       inkscape:connector-curvature="0" />
    <path
       style="fill:#ffffff;stroke:#000000;stroke-width:1px;stroke-linecap:butt;stroke-linejoin:miter;stroke-opacity:1"
       d="m 60,850 64,-80 22,-96 60,-66 30,-34 20,12 0,-26 68,-70 32,-22 20,14 4,-24 86,-46 22,10 0,-18 100,-56 24,6 4,-24 86,-44 30,8 12,-20 160,-22 46,72 -40,84 -118,24 -16,-30 -2,36 -84,20 -24,-4 4,18 -112,54 -34,-40 20,42 -106,46 -16,-18 8,24 -118,86 -14,-16 8,24 -114,78 -42,38 -52,112 -18,-26 38,-60 -46,52 z"
       id="path3785"
       inkscape:connector-curvature="0" />
  </g>
  <g
     inkscape:groupmode="layer"
     id="layer4"
     inkscape:label="tangrarm"
     style="opacity:1">
    <path
       style="fill:#000000;stroke:#000000;stroke-width:1px;stroke-linecap:butt;stroke-linejoin:miter;stroke-opacity:1"
       d="m 510,354 28,-24 38,4 18,30 -12,110 52,92 42,34 -30,14 -30,-8 -36,6 -74,-114 z"
       id="path3004"
       inkscape:connector-curvature="0"
       sodipodi:nodetypes="cccccccccccc" />
  </g>
</svg>
